<?xml version="1.0" standalone="no"?>
<svg xmlns="http://www.w3.org/2000/svg" xmlns:xlink="http://www.w3.org/1999/xlink" width="100%" height="100%" viewBox="0 -10 720 480">
 <title>Time of flight camera principle</title>
 <desc>Principle of operation of a time-of-flight camera by CMG Lee. In the pulsed method (1), the distance, d = c t q2 / (q1 + q2) / 2, where c is the speed of light, t is the length of the pulse, q1 is the accumulated charge in the pixel when light is emitted and q2 is the accumulated charge when it is not. In the continuous-wave method (2), d = c t arctan((q3 - q4) / (q1 - q2)) / 2 / pi. Formulas are based on http://eu.mouser.com/applications/time-of-flight-robotics equations.</desc>
 <defs>
  <pattern id="pattern_a1" patternUnits="userSpaceOnUse" width="10" height="10">
   <path d="M 15,0 l -10,10 M 5,0 l -10,10" stroke="#0066ff"/>
  </pattern>
  <pattern id="pattern_a2" patternUnits="userSpaceOnUse" width="10" height="10">
   <path d="M -5,0 l 10,10 M 5,0 l 10,10" stroke="#0000ff"/>
  </pattern>
  <pattern id="pattern_a3" patternUnits="userSpaceOnUse" width="7" height="7">
   <path d="M 5,0 v 10" stroke="#006699"/>
  </pattern>
  <pattern id="pattern_a4" patternUnits="userSpaceOnUse" width="7" height="7">
   <path d="M 0,5 h 10" stroke="#000099"/>
  </pattern>
  <pattern id="pattern_wave" patternUnits="userSpaceOnUse" width="160" height="60">
   <path d="M 0,50 H 40 V 10 H 120 V 50 H 160" stroke-width="2" stroke="#000000" fill="none"/>
  </pattern>
  <rect id="wave" x="0" y="0" width="320" height="60" fill="url(#pattern_wave)"/>
  <path id="guide" d="M 0,-15 V 140" stroke-width="1" stroke-dasharray="4,4" stroke="#666666"/>
  <path id="tick" d="M 25,0 h 15" stroke-width="4" stroke="#ff9900"/>
  <g id="light">
   <circle cx="0" cy="0" r="20" fill="#ff9900"/>
   <use transform="rotate(  0)" xlink:href="#tick"/>
   <use transform="rotate( 45)" xlink:href="#tick"/>
   <use transform="rotate( 90)" xlink:href="#tick"/>
   <use transform="rotate(135)" xlink:href="#tick"/>
   <use transform="rotate(180)" xlink:href="#tick"/>
   <use transform="rotate(225)" xlink:href="#tick"/>
   <use transform="rotate(270)" xlink:href="#tick"/>
   <use transform="rotate(315)" xlink:href="#tick"/>
  </g>
  <g id="camera">
   <path d="M -10,0 L 40,-20 V 20 Z" fill="#660099"/>
   <rect x="-40" y="-30" width="60" height="60" rx="5" ry="5" fill="#990099"/>
  </g>
  <path id="arrow" d="M -100,0 H 100 m -20,-10 l 20,10 l -20,10" stroke="#ff0000" fill="none"/>
  <g id="cube">
   <rect transform="matrix( 4,-2 -3,-3 0,0)" x="0" y="0" width="10" height="10" fill="#00cc00"/>
   <rect transform="matrix(-3,-3  0, 4 0,0)" x="0" y="0" width="10" height="10" fill="#009900"/>
   <rect transform="matrix( 4,-2  0, 4 0,0)" x="0" y="0" width="10" height="10" fill="#006600"/>
  </g>
  <path id="arrowhead" d="M -4,8 Q -1,7 0,0 Q 1,7 4,8" stroke="#999999" fill="none"/>
  <g id="common">
   <rect x="90"  y="20" width="30" height="40" fill="url(#pattern_a1)"/><text x="105" y="75"><tspan>q</tspan><tspan dy="0.7ex">1</tspan></text>
   <rect x="250" y="20" width="30" height="40" fill="url(#pattern_a1)"/><text x="265" y="75"><tspan>q</tspan><tspan dy="0.7ex">1</tspan></text>
   <rect x="120" y="20" width="50" height="40" fill="url(#pattern_a2)"/><text x="145" y="75"><tspan>q</tspan><tspan dy="0.7ex">2</tspan></text>
   <rect x="280" y="20" width="50" height="40" fill="url(#pattern_a2)"/><text x="305" y="75"><tspan>q</tspan><tspan dy="0.7ex">2</tspan></text>
   <use transform="translate( 40,  0)" xlink:href="#guide"/>
   <use transform="translate(120,  0)" xlink:href="#guide"/>
   <use transform="translate(200,  0)" xlink:href="#guide"/>
   <use transform="translate(280,  0)" xlink:href="#guide"/>
   <use transform="translate(  0,-70)" xlink:href="#wave"/>
   <use transform="translate( 50, 10)" xlink:href="#wave"/>
   <use transform="translate(390,-40)" xlink:href="#light"/>
   <use transform="translate(390, 40)" xlink:href="#camera"/>
   <use transform="translate(540,-20) rotate(  8)" xlink:href="#arrow"/>
   <use transform="translate(540, 20) rotate(172)" xlink:href="#arrow"/>
   <use transform="translate(675,  0)" xlink:href="#cube"/>
   <path d="M 40,-75 H 120" stroke="#999999"/><text x="80" y="-80">t</text>
   <use transform="translate( 40,-75) rotate(270)" xlink:href="#arrowhead"/>
   <use transform="translate(120,-75) rotate( 90)" xlink:href="#arrowhead"/>
   <use transform="translate(430,-75) rotate(270)" xlink:href="#arrowhead"/>
   <use transform="translate(650,-75) rotate( 90)" xlink:href="#arrowhead"/>
   <path d="M 430,-75 H 650" stroke="#999999"/><text x="540" y="-80">d</text>
  </g>
 </defs>
 <circle cx="0" cy="0" r="99999" fill="#ffffff"/>
 <g font-family="Helvetica,Arial,sans-serif" font-size="20" text-anchor="middle" stroke-width="2" fill="#000000">
  <g transform="translate(0,100)">
   <text x="15" y="-75" font-size="40">1</text>
   <use xlink:href="#common"/>
  </g>
  <g transform="translate(0,315)">
   <text x="15" y="-75" font-size="40">2</text>
   <rect x="90"  y="90" width="70" height="40" fill="url(#pattern_a3)"/><text x="120" y="145"><tspan>q</tspan><tspan dy="0.7ex">3</tspan></text>
   <rect x="250" y="90" width="70" height="40" fill="url(#pattern_a3)"/><text x="280" y="145"><tspan>q</tspan><tspan dy="0.7ex">3</tspan></text>
   <rect x="160" y="90" width="10" height="40" fill="url(#pattern_a4)"/><text x="170" y="145"><tspan>q</tspan><tspan dy="0.7ex">4</tspan></text>
   <rect x="320" y="90" width="10" height="40" fill="url(#pattern_a4)"/><text x="330" y="145"><tspan>q</tspan><tspan dy="0.7ex">4</tspan></text>
   <use transform="translate( 80,0)" xlink:href="#guide"/>
   <use transform="translate(160,0)" xlink:href="#guide"/>
   <use transform="translate(240,0)" xlink:href="#guide"/>
   <use transform="translate(320,0)" xlink:href="#guide"/>
   <use transform="translate( 50,80)" xlink:href="#wave" fill-opacity="0.5"/>
   <use xlink:href="#common"/>
  </g>
 </g>
</svg>
